Coordinates
version=1
nRows=21
nColumns=19
inDegrees=yes

Units are S.I. units (second, meters, Newtons, ...)
Angles are in degrees.

endheader
time	pelvis_tilt	pelvis_list	pelvis_rotation	pelvis_tx	pelvis_ty	pelvis_tz	hip_flexion_r	hip_adduction_r	hip_rotation_r	knee_angle_r	ankle_angle_r	subtalar_angle_r	hip_flexion_l	hip_adduction_l	hip_rotation_l	knee_angle_l	ankle_angle_l	subtalar_angle_l
      1.25000000	      6.09779294	     -1.17736540	     -2.70529482	      0.58488681	      1.01733649	      0.04174581	    -23.47595821	      0.59470399	     -3.52081375	     -7.20118885	     14.23158018	     10.90261983	     16.96630842	     -2.30924685	     -6.35789937	     -1.87605224	     -0.64918608	      6.77258712
      1.26700000	      5.94490693	     -0.82254156	     -2.78923967	      0.58703628	      1.01595276	      0.03972287	    -23.57361350	     -0.13508587	     -4.08267914	     -9.20863015	     14.67803842	     12.10134557	     17.43575839	     -1.74634050	     -5.59783524	     -4.20064018	     -1.69468118	      6.08889564
      1.28300000	      5.73703506	     -0.87085651	     -3.01556122	      0.58803749	      1.01496491	      0.03822900	    -23.19415945	     -0.51671561	     -4.24012425	    -11.86099831	     14.81786378	     13.08672479	     17.94094115	     -1.70811500	     -5.26803718	     -6.59508399	     -3.00347570	      5.73543515
      1.30000000	      5.63920916	     -0.58680179	     -3.29216755	      0.59058418	      1.01471239	      0.03648377	    -22.96312496	     -1.33833275	     -4.70019222	    -14.50047280	     14.47725400	     14.37371412	     18.22391300	     -1.36146659	     -5.27193944	     -9.06873146	     -4.02934264	      5.49055173
      1.31700000	      5.80065585	     -0.23688512	     -3.47799549	      0.59363735	      1.01535680	      0.03448613	    -22.56519173	     -2.23671790	     -4.99462343	    -17.94828715	     13.69159965	     15.24396886	     18.10375554	     -0.92640093	     -5.35999044	    -11.43334342	     -4.63698095	      5.32863085
      1.33300000	      6.03052060	      0.11210916	     -3.54063559	      0.59687114	      1.01658467	      0.03226179	    -21.77585959	     -3.13525232	     -5.30917667	    -22.15302554	     12.27918578	     15.77221338	     17.72850229	     -0.44911871	     -5.34566599	    -13.54948319	     -4.82932022	      5.11556461
      1.35000000	      6.50427182	      0.53691740	     -3.47425795	      0.60025547	      1.01865973	      0.02949537	    -20.75675745	     -4.18747263	     -5.90367448	    -27.05207402	      9.93609254	     16.03181939	     16.81712130	      0.21361483	     -5.09260588	    -15.22415810	     -4.68469030	      4.65979452
      1.36700000	      6.85268028	      0.94647772	     -3.23138815	      0.60339899	      1.02073485	      0.02610318	    -19.06397683	     -5.25135363	     -6.61607110	    -32.61729880	      6.51986470	     15.54509144	     15.82846042	      0.87122014	     -5.00787966	    -16.53434459	     -4.16528829	      4.73735600
      1.38300000	      7.07679470	      1.35427115	     -3.05507611	      0.60590555	      1.02277968	      0.02257288	    -16.71059673	     -6.43538682	     -7.27248560	    -38.57902749	      2.19086380	     14.30781825	     14.74425549	      1.49375935	     -5.12930433	    -17.41387379	     -3.38733135	      5.05563501
      1.40000000	      7.21025406	      1.59640296	     -2.85254726	      0.60756489	      1.02487515	      0.01948344	    -13.96327248	     -7.26760275	     -7.45144562	    -44.35673576	     -2.57113331	     11.76481479	     13.68255999	      1.90409763	     -5.25793286	    -18.14578033	     -2.28265074	      5.63580978
      1.41700000	      7.41124401	      1.80568632	     -2.70288612	      0.60880080	      1.02765289	      0.01634381	    -11.23137399	     -8.02872238	     -7.50981651	    -49.52792736	     -6.81998343	      8.94870032	     12.18109776	      2.33378728	     -5.35854069	    -18.11945751	     -1.31625343	      6.11575467
      1.43300000	      7.49926817	      2.07510223	     -2.84247262	      0.60850091	      1.03012405	      0.01365830	     -8.10550206	     -8.77100118	     -7.05101918	    -54.51139863	     -9.28461827	      6.27815992	     10.76503238	      2.78610437	     -5.67222871	    -17.85849846	     -0.41011553	      6.51702948
      1.45000000	      7.59995062	      2.17459092	     -2.98321413	      0.60788157	      1.03298374	      0.01096544	     -5.09981061	     -9.14961463	     -6.41467072	    -58.81300461	     -9.81517414	      3.91057617	      9.25980809	      3.10239383	     -5.87314402	    -17.43165631	      0.43232292	      6.79668985
      1.46700000	      7.59433992	      1.76277721	     -2.42268387	      0.60820101	      1.03642026	      0.00798009	     -2.56115311	     -8.69260015	     -6.42370802	    -61.95794244	     -8.90831249	      1.97441833	      7.75072359	      2.86054251	     -5.75984020	    -16.92744797	      1.34349921	      7.82909670
      1.48300000	      7.71771430	      1.51794275	     -2.15642169	      0.60720509	      1.03983104	      0.00562370	      0.00105805	     -8.36729456	     -6.13184406	    -64.68221120	     -7.08936750	      0.72109400	      5.97057940	      2.80019895	     -5.63157988	    -15.94922998	      1.91319834	      8.31035818
      1.50000000	      7.64402514	      1.21884065	     -1.62882166	      0.60602323	      1.04254462	      0.00304703	      2.57618071	     -7.92027247	     -6.12853352	    -66.61094151	     -5.04706881	      0.08914398	      4.52871936	      2.67899776	     -5.19135401	    -15.17263366	      2.54403292	      8.73852719
      1.51700000	      7.61027159	      0.83318664	     -0.96382591	      0.60462133	      1.04504792	      0.00060937	      4.92242490	     -7.39525366	     -6.38389948	    -67.68735087	     -3.18020091	     -0.01310605	      2.97793089	      2.42293403	     -4.71394103	    -14.21535632	      3.09818042	      9.29443749
      1.53300000	      7.62704013	      0.52184672	     -0.40608822	      0.60333216	      1.04726382	     -0.00176044	      7.07796979	     -6.89171045	     -6.48652512	    -67.95664355	     -1.70302523	      0.10228909	      1.25921065	      2.23781132	     -4.31427152	    -13.02146341	      3.52978542	      9.73283675
      1.55000000	      7.47411536	      0.47025789	     -0.01323781	      0.60096837	      1.04827849	     -0.00380571	      9.46964237	     -6.75756615	     -6.53374698	    -67.74667185	     -0.44271031	      0.77397264	     -0.07064841	      2.28305941	     -4.16430230	    -12.11550168	      4.02257257	     10.21228009
      1.56700000	      7.48070116	      0.11348159	      0.78625262	      0.59960735	      1.04960466	     -0.00598327	     11.16444308	     -6.30847485	     -7.10186346	    -66.37336886	      0.39099865	      1.40403710	     -1.66012625	      1.94087077	     -3.67608873	    -11.11658287	      4.55877344	     10.83231722
      1.58300000	      7.45546682	     -0.08641608	      1.25678301	      0.59761642	      1.05011604	     -0.00760729	     12.87886221	     -6.05458302	     -7.42965696	    -64.45645067	      1.05159975	      2.15725138	     -3.03152726	      1.70100072	     -3.74801333	    -10.44438501	      5.25808658	     11.84285410
